<?xml version="1.0" encoding="utf-8"?>
<!-- Generator: Adobe Illustrator 25.4.1, SVG Export Plug-In . SVG Version: 6.00 Build 0)  -->
<svg version="1.1" id="Livello_1" xmlns="http://www.w3.org/2000/svg" xmlns:xlink="http://www.w3.org/1999/xlink" x="0px" y="0px"
	 viewBox="0 0 90.3 61.8" style="enable-background:new 0 0 90.3 61.8;" xml:space="preserve">
<style type="text/css">
	.st0{fill:#007B52;}
	.st1{fill:#CD112E;}
	.st2{fill:#213A7A;}
	.st3{fill-rule:evenodd;clip-rule:evenodd;fill:#FFFFFF;}
	.st4{fill:#FFFFFF;}
</style>
<g>
	<g>
		<g>
			<g>
				<g>
					<g>
						<path class="st0" d="M70.7,45.2c0.1,0.7,0.1,1.4,0.1,2.1l3.4,2.2c0-0.8-0.1-1.6-0.2-2.5L70.7,45.2z"/>
						<path class="st1" d="M66.3,47.3c-0.2,0.5-0.5,1-0.9,1.5l3,2.6c0.4-0.6,0.6-1.1,0.9-1.8L66.3,47.3z"/>
						<path class="st2" d="M63.5,50.7c-0.5,0.4-1.2,0.7-1.8,1l2.8,3.2c0.7-0.3,1.4-0.8,2-1.2L63.5,50.7z"/>
						<path class="st1" d="M65.1,61c1.1-0.3,2.1-0.7,3-1.2l-3.4-3.9c-0.8,0.4-1.7,0.6-2.6,0.9L65.1,61z"/>
						<path class="st0" d="M51.1,51.7c1.1,0.1,2.2,0.2,3.2,0.3l-1.7-2.9c-0.9,0-1.8-0.1-2.8-0.3L51.1,51.7z"/>
						<path class="st0" d="M43.2,59.1c1.9,0.6,3.8,1.2,5.6,1.6l-1.2-4.5c-1.5-0.4-3.1-0.9-4.7-1.4L43.2,59.1z"/>
						<path class="st1" d="M32.9,45.1c1.3,0.8,2.7,1.5,4,2.1l0.3-2.5c-1.1-0.6-2.3-1.2-3.5-1.8L32.9,45.1z"/>
						<path class="st2" d="M27.3,42.4c-1.3-0.9-2.5-1.8-3.7-2.8l-2.5,1.8c1.4,1.1,2.8,2.2,4.3,3.3L27.3,42.4z"/>
						<path class="st1" d="M7.8,34.4c1.1,1.4,2.3,2.9,3.6,4.3l3.8-1.6C14,35.9,13,34.7,12,33.5L7.8,34.4z"/>
						<path class="st2" d="M22.4,9.5c0.7,0,1.4,0.1,2.1,0.1l-1.3-1.5c-0.8-0.1-1.6-0.2-2.4-0.2L22.4,9.5z"/>
						<path class="st3" d="M26.6,3.9c2.2,0.7,4.8,1.5,7.5,2.6l-0.4-1.4c-2.4-1-5.2-2-8.2-3L26.6,3.9z"/>
						<path class="st1" d="M42.2,9.1c-0.4-0.2-3.5-1.9-7.9-3.7l0.3,1.3c2.3,1,4.8,2.1,7.3,3.5L42.2,9.1z"/>
						<g>
							<path class="st0" d="M6.9,21.9c0.3,1,0.6,1.9,1,3l3.8,0.2c-0.4-0.9-0.7-1.7-1-2.6L6.9,21.9z"/>
							<path class="st2" d="M2.4,11.6c-0.4,0.7-0.7,1.4-1,2.1l4.2,1.4c0.2-0.7,0.4-1.3,0.7-1.9L2.4,11.6z"/>
							<path class="st1" d="M10.8,14.7c0.2-0.5,0.5-1,0.9-1.4l-3.1-1.5c-0.4,0.5-0.8,1-1.1,1.5L10.8,14.7z"/>
							<path class="st0" d="M16.7,13.5c0.4-0.3,0.8-0.5,1.2-0.8l-2.2-1.5c-0.5,0.2-1,0.5-1.4,0.8L16.7,13.5z"/>
							<path class="st1" d="M14.6,7.8c0.7-0.1,1.4-0.2,2.2-0.3l-2.1-1.8c-0.9,0-1.7,0.1-2.5,0.3L14.6,7.8z"/>
							<path class="st2" d="M13.4,4c0.9,0,1.9,0,2.8,0l-2-1.9C13.1,2,12,2,11,2L13.4,4z"/>
							<path class="st1" d="M3.8,6c0.8-0.4,1.5-0.7,2.4-0.9L2.8,2.9C1.8,3.2,0.9,3.5,0,3.8L3.8,6z"/>
							<path class="st4" d="M26.4,8.2c0.8,0.2,1.7,0.4,2.5,0.6l-0.8-1.4c-0.9-0.3-1.9-0.5-2.8-0.7L26.4,8.2z M23.3,7.7
								c0.8,0.1,1.6,0.2,2.5,0.4l-1.1-1.5c-0.9-0.2-1.9-0.4-2.8-0.5L23.3,7.7z M73.8,46.5c-0.2-0.8-0.4-1.7-0.7-2.5l-3-1.5
								c0.2,0.7,0.4,1.5,0.5,2.2L73.8,46.5z M67.3,54.5c-0.6,0.5-1.3,0.9-2,1.3l3.3,3.8c0.8-0.5,1.6-1,2.2-1.6L67.3,54.5z
								 M69.1,52.5c-0.4,0.6-0.9,1.1-1.4,1.6l3.5,3.5c0.6-0.6,1.1-1.3,1.5-2L69.1,52.5z M70.2,50.3c-0.2,0.7-0.5,1.3-0.9,1.8
								l3.6,3.1c0.4-0.7,0.6-1.4,0.8-2.2L70.2,50.3z M70.7,47.8c-0.1,0.7-0.2,1.4-0.4,2l3.5,2.6c0.2-0.8,0.2-1.6,0.3-2.4L70.7,47.8z
								 M60.8,61.8c1.3-0.1,2.6-0.3,3.7-0.6L61.4,57c-1,0.2-2.1,0.3-3.3,0.4L60.8,61.8z M55.6,61.7c1.6,0.1,3,0.1,4.4,0.1l-2.6-4.4
								c-1.2,0-2.5,0-3.8-0.2L55.6,61.7z M49.7,60.9c1.8,0.4,3.5,0.7,5.2,0.8l-2-4.5c-1.4-0.2-2.9-0.4-4.4-0.8L49.7,60.9z
								 M36.5,56.4c2,0.9,3.9,1.7,5.8,2.4l-0.4-4.3c-1.6-0.6-3.3-1.3-5-2L36.5,56.4z M29.7,52.9c2,1.1,3.9,2.1,5.9,3.1l0.6-4
								c-1.7-0.8-3.3-1.7-5-2.6L29.7,52.9z M20.3,7.4c0.8,0,1.6,0.1,2.4,0.2L21.3,6c-0.9-0.1-1.8-0.2-2.7-0.3L20.3,7.4z M17.4,7.4
								c0.7,0,1.5-0.1,2.3-0.1L18,5.6c-0.9,0-1.8,0-2.6,0L17.4,7.4z M12.1,8.5c0.6-0.2,1.3-0.4,2-0.6l-2.4-1.8
								c-0.8,0.1-1.6,0.3-2.3,0.6L12.1,8.5z M9.9,9.6C10.5,9.3,11,9,11.7,8.7L8.9,6.8C8.2,7.1,7.5,7.4,6.8,7.7L9.9,9.6z M6.3,8
								C5.6,8.4,5,8.8,4.5,9.3l3.6,1.8c0.4-0.4,0.9-0.8,1.5-1.2L6.3,8z M6.5,12.9c0.3-0.6,0.7-1.1,1.2-1.6L4.1,9.5
								c-0.6,0.5-1,1.1-1.5,1.7L6.5,12.9z M1.2,14.2C1,15,0.8,15.9,0.8,16.8L5.3,18c0-0.8,0.1-1.6,0.2-2.3L1.2,14.2z M0.8,17.4
								c0,1,0.1,2,0.2,3l4.6,0.8c-0.2-0.9-0.3-1.8-0.4-2.7L0.8,17.4z M1.1,21c0.2,1.1,0.6,2.3,1,3.5l4.6,0.3c-0.4-1-0.8-2.1-1-3
								L1.1,21z M2.4,25.1c0.5,1.3,1.1,2.5,1.9,3.9l4.5-0.3c-0.7-1.1-1.2-2.2-1.7-3.3L2.4,25.1z M4.6,29.6c0.8,1.4,1.7,2.7,2.7,4.1
								l4.2-0.9c-0.9-1.2-1.7-2.4-2.5-3.5H8.5L4.6,29.6z M19.7,41.3c-1.4-1.2-2.7-2.4-3.9-3.6L12,39.3c1.4,1.4,2.9,2.9,4.5,4.3
								L19.7,41.3z M24.8,45.3c-1.5-1.1-3-2.2-4.4-3.4l-3.1,2.3c1.6,1.4,3.3,2.7,5.2,4L24.8,45.3z M30.4,48.9c-1.7-1-3.2-2-4.8-3.1
								l-2.4,2.9c1.8,1.3,3.7,2.5,5.6,3.6L30.4,48.9z M32.7,9.9c0.9,0.3,1.7,0.6,2.6,0.9L35,9.6c-1-0.4-1.9-0.7-2.8-1.1L32.7,9.9z
								 M29.6,8.9c0.8,0.2,1.7,0.5,2.6,0.8l-0.6-1.3c-1-0.3-1.9-0.6-2.8-0.9L29.6,8.9z"/>
							<path class="st4" d="M27.8,10.1c0.7,0.1,1.5,0.3,2.2,0.5l-0.7-1.3c-0.8-0.2-1.7-0.4-2.5-0.6L27.8,10.1z M25,9.7
								c0.7,0.1,1.4,0.2,2.2,0.3l-1-1.4c-0.8-0.2-1.6-0.3-2.4-0.4L25,9.7z M65.2,49.2c-0.4,0.5-0.8,0.9-1.3,1.3l2.9,2.9
								c0.5-0.5,1-1,1.4-1.5L65.2,49.2z M66.9,45.3c-0.1,0.6-0.2,1.1-0.4,1.6l3,2.3c0.2-0.6,0.3-1.3,0.4-2L66.9,45.3z M67,43.1
								c0,0.6,0,1.2,0,1.8l2.9,1.9c0-0.7,0-1.4-0.1-2.1L67,43.1z M61.3,55.9c0.9-0.2,1.8-0.5,2.6-0.8l-2.8-3.2
								c-0.7,0.3-1.5,0.5-2.3,0.6L61.3,55.9z M57.5,56.3c1.1,0,2.2-0.2,3.2-0.3l-2.5-3.4c-0.9,0.1-1.8,0.2-2.8,0.2L57.5,56.3z
								 M53.1,56.2c1.3,0.1,2.6,0.2,3.7,0.2l-2.1-3.5c-1,0-2.1-0.1-3.2-0.2L53.1,56.2z M48.1,55.3c1.5,0.4,2.9,0.6,4.3,0.8l-1.6-3.6
								c-1.2-0.2-2.4-0.4-3.7-0.7L48.1,55.3z M42.7,53.7c1.6,0.6,3.1,1,4.6,1.4l-1-3.5c-1.3-0.3-2.6-0.8-4-1.2L42.7,53.7z
								 M37.1,51.4c1.6,0.8,3.2,1.4,4.8,2L41.6,50c-1.4-0.5-2.7-1.1-4.1-1.7L37.1,51.4z M31.5,48.5c1.6,0.9,3.2,1.8,4.8,2.5l0.4-3.1
								c-1.4-0.7-2.7-1.4-4.1-2.2L31.5,48.5z M19.9,9.6c0.6-0.1,1.3-0.1,2-0.1L20.3,8c-0.8,0-1.5,0-2.3,0L19.9,9.6z M17.5,10
								c0.6-0.1,1.2-0.2,1.8-0.3l-1.9-1.6c-0.7,0.1-1.4,0.2-2.1,0.3L17.5,10z M15.4,10.6c0.5-0.2,1.1-0.4,1.6-0.6l-2.2-1.6
								c-0.7,0.2-1.3,0.3-1.9,0.6L15.4,10.6z M13.5,11.7c0.4-0.3,0.9-0.6,1.4-0.8l-2.5-1.7c-0.6,0.2-1.2,0.5-1.7,0.9L13.5,11.7z
								 M10.4,10.3c-0.5,0.4-1,0.8-1.5,1.2L12,13c0.3-0.4,0.7-0.8,1.2-1.1L10.4,10.3z M7.3,13.7c-0.3,0.6-0.5,1.2-0.7,1.9l3.6,1.2
								c0.1-0.6,0.3-1.2,0.5-1.7L7.3,13.7z M6.5,16c-0.1,0.7-0.2,1.5-0.2,2.3l3.7,1c0-0.7,0-1.4,0.1-2L6.5,16z M6.4,18.8
								c0,0.8,0.2,1.7,0.4,2.6l3.8,0.6c-0.2-0.8-0.4-1.6-0.4-2.3L6.4,18.8z M8.1,25.4c0.5,1.1,1.1,2.1,1.7,3.2l3.6-0.2
								c-0.6-0.9-1.1-1.9-1.6-2.8L8.1,25.4z M10.2,29.2c0.7,1.1,1.5,2.3,2.4,3.4l3.4-0.7c-0.8-1-1.5-2-2.2-3h-0.4L10.2,29.2z
								 M13.1,33.2c0.9,1.2,2,2.4,3.1,3.5l3-1.2c-1-1-1.9-2-2.7-3L14.1,33L13.1,33.2z M23,39c-1.2-1-2.2-2-3.3-3l-3,1.2
								c1.2,1.2,2.4,2.3,3.8,3.5L23,39z M32,45.4c-1.4-0.8-2.7-1.7-4-2.5l-1.8,2.3c1.5,1,3,2,4.7,3L32,45.4z M30.6,10.7
								c0.8,0.2,1.5,0.4,2.3,0.7l-0.5-1.2c-0.8-0.3-1.7-0.5-2.5-0.8L30.6,10.7z"/>
							<path class="st4" d="M29.1,11.8c0.6,0.1,1.3,0.3,2,0.4l-0.7-1.1c-0.7-0.2-1.5-0.3-2.2-0.5L29.1,11.8z M26.6,11.5
								c0.6,0.1,1.3,0.1,1.9,0.2l-0.9-1.2c-0.7-0.1-1.4-0.2-2.1-0.3L26.6,11.5z M60.3,47.5c-0.5,0.3-1,0.5-1.6,0.7l2.3,2.6
								c0.7-0.3,1.3-0.6,1.8-0.9L60.3,47.5z M61.9,46.3c-0.4,0.4-0.8,0.7-1.2,1l2.5,2.4c0.5-0.4,0.9-0.8,1.3-1.2L61.9,46.3z
								 M63,44.8c-0.2,0.4-0.5,0.8-0.8,1.2l2.6,2.2c0.3-0.4,0.6-0.9,0.9-1.4L63,44.8z M63.6,43.1c-0.1,0.5-0.3,0.9-0.4,1.4l2.6,1.9
								c0.2-0.5,0.3-1,0.4-1.6L63.6,43.1z M58.2,51.6c0.8-0.1,1.6-0.3,2.3-0.6l-2.3-2.6c-0.6,0.2-1.3,0.3-2,0.5L58.2,51.6z
								 M54.9,51.9c1,0,1.9-0.1,2.8-0.2l-2-2.8C54.9,49,54.1,49,53.3,49L54.9,51.9z M46.9,50.8c1.3,0.3,2.5,0.6,3.6,0.7l-1.3-2.9
								c-1-0.2-2.1-0.4-3.1-0.7L46.9,50.8z M42.3,49.4c1.3,0.5,2.6,0.9,3.9,1.2l-0.8-2.8c-1.1-0.3-2.2-0.7-3.3-1.1L42.3,49.4z
								 M37.6,47.5c1.3,0.6,2.7,1.2,4,1.7l-0.2-2.7c-1.1-0.4-2.3-0.9-3.5-1.5L37.6,47.5z M24.3,11.4c0.6,0,1.2,0,1.8,0.1L25,10.2
								c-0.7-0.1-1.4-0.1-2-0.1L24.3,11.4z M22.1,11.5c0.5-0.1,1.1-0.1,1.7-0.1L22.4,10c-0.7,0-1.3,0-1.9,0.1L22.1,11.5z M20.1,11.9
								c0.5-0.1,1-0.2,1.5-0.3l-1.7-1.4c-0.6,0.1-1.2,0.2-1.8,0.3L20.1,11.9z M18.3,12.6c0.4-0.2,0.9-0.4,1.4-0.5l-1.9-1.5
								c-0.6,0.2-1.1,0.3-1.6,0.5L18.3,12.6z M14,12.3c-0.4,0.3-0.8,0.7-1.2,1.1l2.7,1.3c0.3-0.4,0.6-0.7,0.9-1L14,12.3z M14.6,16.3
								c0.2-0.4,0.4-0.9,0.7-1.2l-2.7-1.3c-0.3,0.4-0.6,0.9-0.8,1.4L14.6,16.3z M11.6,15.5c-0.2,0.5-0.4,1.1-0.5,1.7l3,1
								c0.1-0.5,0.2-1,0.3-1.5L11.6,15.5z M11,17.6c-0.1,0.6-0.1,1.3,0,2l3.1,0.8c-0.1-0.6-0.1-1.2,0-1.7L11,17.6z M11.1,20
								c0.1,0.7,0.2,1.5,0.5,2.2l3.1,0.5c-0.2-0.7-0.4-1.3-0.5-2L11.1,20z M11.7,22.7c0.3,0.8,0.6,1.7,1,2.5l3.1,0.2
								c-0.4-0.7-0.7-1.5-0.9-2.2L11.7,22.7z M12.9,25.7c0.4,0.9,1,1.8,1.6,2.7l2.9-0.2c-0.5-0.8-1-1.6-1.4-2.4L12.9,25.7z M14.8,29
								c0.6,0.9,1.3,1.9,2.1,2.9l2.7-0.6c-0.7-0.8-1.3-1.7-1.9-2.5h-0.3L14.8,29z M17.3,32.3c0.8,1,1.7,2,2.7,2.9l2.4-1
								c-0.8-0.8-1.6-1.7-2.4-2.5l-1.9,0.4L17.3,32.3z M25.6,37.2c-1-0.8-1.9-1.6-2.8-2.5l-2.4,1c1,1,2.1,1.9,3.2,2.9L25.6,37.2z
								 M29.3,40c-1.1-0.8-2.1-1.5-3.1-2.3l-1.9,1.4c1.1,0.9,2.3,1.8,3.6,2.7L29.3,40z M33.2,42.5c-1.1-0.7-2.3-1.4-3.3-2.1
								l-1.5,1.8c1.2,0.9,2.5,1.7,3.9,2.5L33.2,42.5z"/>
							<path class="st4" d="M35.3,8.7c1,0.4,2,0.8,3,1.3l-0.1-1.2c-1.1-0.5-2.2-1-3.3-1.4L35.3,8.7z M24.2,5.2c1,0.2,2,0.5,3,0.7
								l-0.9-1.6C25.2,4,24.1,3.7,23,3.4L24.2,5.2z M20.5,4.5c1,0.1,2,0.3,3,0.5l-1.2-1.7C21.2,3,20.1,2.8,19,2.6L20.5,4.5z
								 M16.9,4.1c1,0.1,1.9,0.2,2.9,0.3l-1.6-1.8c-1.1-0.2-2.2-0.3-3.3-0.4L16.9,4.1z M10,4.3c0.9-0.1,1.8-0.2,2.7-0.2L10.3,2
								C9.2,2,8.2,2.1,7.1,2.2L10,4.3z M6.8,4.9c0.8-0.2,1.7-0.4,2.6-0.6L6.5,2.1c-1,0.1-2,0.3-3,0.5L6.8,4.9z M31.6,7.3
								c1,0.4,2,0.7,3,1.1l-0.3-1.3c-1.1-0.4-2.2-0.9-3.3-1.3L31.6,7.3z M27.9,6.1c1,0.3,2,0.6,3,0.9l-0.6-1.4
								c-1.1-0.4-2.2-0.7-3.3-1.1L27.9,6.1z"/>
							<path class="st0" d="M18.3,2c0.3,0,3.3,0.5,7.6,1.7l-1-1.7c-2.7-0.8-5.5-1.5-8.3-2L18.3,2z"/>
						</g>
					</g>
				</g>
			</g>
		</g>
	</g>
	<g>
		<path class="st4" d="M35.4,20.6h1v5.7h-1V20.6z"/>
		<path class="st4" d="M40.2,21.4h-2.4l-0.3-0.9h4.4l-2.8,4.8h2.8v0.9h-4.5L40.2,21.4z"/>
		<path class="st4" d="M42.9,25.1c0.3,0.2,0.8,0.4,1.3,0.4s1-0.2,1-0.7c0-1.1-2.5-1-2.5-2.7c0-0.8,0.7-1.6,1.9-1.6
			c0.6,0,1.1,0.1,1.4,0.3v1c-0.5-0.2-0.9-0.4-1.4-0.4c-0.4,0-0.8,0.2-0.8,0.6c0,1.1,2.5,0.9,2.5,2.7c0,1-0.9,1.6-2,1.6
			c-0.7,0-1.3-0.2-1.7-0.5L42.9,25.1z"/>
		<path class="st4" d="M49,20.5h0.8l2.3,5.8H51l-0.6-1.4h-2l-0.5,1.4h-1.1L49,20.5z M50.1,24l-0.4-1.1c-0.2-0.4-0.2-0.7-0.3-0.9l0,0
			c-0.1,0.2-0.1,0.5-0.3,0.9L48.7,24H50.1z"/>
		<path class="st4" d="M52.9,20.6h0.9l1.5,2.2c0.2,0.3,0.3,0.5,0.5,0.7l0,0c0.1-0.2,0.3-0.5,0.5-0.8l1.4-2.1h1v5.7h-1.1v-3.2
			c0-0.2,0-0.5,0-0.8l0,0c-0.1,0.2-0.3,0.5-0.4,0.6l-1.1,1.8h-0.5l-1.3-1.8c-0.1-0.2-0.3-0.4-0.4-0.6l0,0c0,0.2,0,0.5,0,0.7v3.3h-1
			V20.6z"/>
		<path class="st4" d="M64.6,26.1c-0.3,0.2-0.8,0.3-1.3,0.3c-1.1,0-1.8-0.7-1.8-1.7c0-1.1,0.8-1.8,1.9-1.8c0.4,0,0.8,0.1,1,0.2v0.6
			c-0.3-0.1-0.6-0.2-1-0.2c-0.8,0-1.3,0.5-1.3,1.3s0.4,1.2,1.2,1.2c0.2,0,0.4,0,0.6-0.1v-1.1h0.6L64.6,26.1L64.6,26.1z"/>
		<path class="st4" d="M65.2,26c0-0.2,0.2-0.4,0.4-0.4c0.2,0,0.4,0.2,0.4,0.4c0,0.2-0.2,0.4-0.4,0.4C65.4,26.3,65.2,26.2,65.2,26z"
			/>
		<path class="st4" d="M69.3,26.1c-0.4,0.2-0.8,0.3-1.1,0.3c-1.1,0-1.8-0.7-1.8-1.8c0-1,0.7-1.8,1.8-1.8c0.4,0,0.7,0.1,0.9,0.2v0.6
			c-0.3-0.1-0.6-0.2-0.9-0.2c-0.8,0-1.2,0.6-1.2,1.3c0,0.7,0.4,1.2,1.2,1.2c0.3,0,0.6-0.1,0.9-0.2L69.3,26.1z"/>
		<path class="st4" d="M70.8,22.8h0.5l1.4,3.5H72l-0.3-0.9h-1.2l-0.3,0.9h-0.7L70.8,22.8z M71.5,24.9l-0.2-0.7
			c-0.1-0.3-0.1-0.4-0.2-0.5l0,0c0,0.1-0.1,0.3-0.2,0.5l-0.3,0.7H71.5z"/>
		<path class="st4" d="M73,22.8h0.8c0.3,0,0.6,0,0.8,0.1c0.4,0.2,0.6,0.5,0.6,1c0,0.4-0.2,0.8-0.7,1C74.3,25,74.1,25,73.8,25h-0.1
			v1.2h-0.6L73,22.8L73,22.8z M73.9,24.6c0.2,0,0.3,0,0.4-0.1c0.2-0.1,0.3-0.3,0.3-0.5s-0.1-0.4-0.3-0.5c-0.1-0.1-0.2-0.1-0.4-0.1
			h-0.2v1.3L73.9,24.6L73.9,24.6z"/>
		<path class="st4" d="M75.7,24.5c0-1.1,0.7-1.8,1.8-1.8c1,0,1.8,0.7,1.8,1.8c0,1.1-0.7,1.8-1.8,1.8S75.7,25.6,75.7,24.5z
			 M78.5,24.5c0-0.8-0.4-1.3-1.1-1.3c-0.6,0-1.1,0.5-1.1,1.3s0.4,1.3,1.1,1.3S78.5,25.3,78.5,24.5z"/>
		<path class="st4" d="M79.8,22.8h1c0.3,0,0.6,0.1,0.8,0.1c0.4,0.2,0.5,0.5,0.5,0.9c0,0.5-0.3,0.8-0.7,0.9l0,0
			c0.1,0.1,0.2,0.2,0.4,0.6l0.6,1h-0.7l-0.5-0.9c-0.2-0.3-0.3-0.5-0.4-0.5h-0.3v1.4h-0.6L79.8,22.8L79.8,22.8z M80.7,24.4
			c0.2,0,0.3,0,0.4-0.1s0.2-0.2,0.2-0.5c0-0.2-0.1-0.4-0.2-0.4c-0.1-0.1-0.2-0.1-0.4-0.1h-0.3v1.1H80.7z"/>
		<path class="st4" d="M83.8,22.8h0.5l1.4,3.5H85l-0.3-0.9h-1.2l-0.3,0.9h-0.7L83.8,22.8z M84.5,24.9l-0.2-0.7
			c-0.1-0.3-0.1-0.4-0.2-0.5l0,0c0,0.1-0.1,0.3-0.2,0.5l-0.3,0.7H84.5z"/>
		<path class="st4" d="M86.1,22.8h0.6v3h1.2v0.5H86L86.1,22.8L86.1,22.8z"/>
		<path class="st4" d="M88.4,22.8h1.9l-0.2,0.5H89v0.9h1.1v0.5H89v1h1.3v0.5h-1.9L88.4,22.8L88.4,22.8z"/>
		<path class="st4" d="M36.5,29.2h-1.7v-0.9h4.5L39,29.2h-1.5V34h-1V29.2z"/>
		<path class="st4" d="M40,28.4h3.2l-0.3,0.9h-1.8v1.5h1.8v0.9h-1.8v1.6h2.1v0.9H40L40,28.4L40,28.4z"/>
		<path class="st4" d="M44.4,28.4H46c0.5,0,0.9,0.1,1.2,0.2c0.6,0.3,0.9,0.8,0.9,1.4c0,0.8-0.5,1.3-1.1,1.5l0,0
			c0.2,0.1,0.4,0.4,0.7,0.9l1,1.7h-1.2l-0.8-1.4c-0.3-0.5-0.5-0.7-0.6-0.8h-0.5v2.2h-1v-5.7H44.4z M45.9,31c0.3,0,0.5-0.1,0.6-0.1
			c0.2-0.1,0.4-0.4,0.4-0.8c0-0.3-0.1-0.6-0.4-0.7c-0.1-0.1-0.3-0.2-0.6-0.2h-0.5V31L45.9,31L45.9,31z"/>
		<path class="st4" d="M51.1,28.3h0.8l2.3,5.7h-1.1l-0.6-1.4h-2L50,34h-1.1L51.1,28.3z M52.2,31.8l-0.4-1.1
			c-0.2-0.4-0.2-0.7-0.3-0.9l0,0c-0.1,0.2-0.1,0.5-0.3,0.9l-0.4,1.1H52.2z"/>
		<path class="st4" d="M55,28.4h0.9l1.5,2.2c0.2,0.3,0.3,0.5,0.5,0.7l0,0c0.1-0.2,0.3-0.5,0.5-0.8l1.4-2.1h1v5.7h-1v-3.2
			c0-0.2,0-0.5,0-0.8l0,0c-0.1,0.2-0.3,0.5-0.4,0.6l-1.1,1.8h-0.5l-1.2-1.8c-0.1-0.2-0.3-0.4-0.4-0.6l0,0c0,0.2,0,0.5,0,0.7v3.3h-1
			v-5.7H55z"/>
		<path class="st4" d="M61.9,31.2c0-1.7,1.2-2.9,2.9-2.9c1.7,0,2.9,1.2,2.9,2.9c0,1.8-1.2,2.9-2.9,2.9C63.1,34.2,61.9,33,61.9,31.2z
			 M66.5,31.2c0-1.3-0.7-2.1-1.8-2.1c-1.1,0-1.8,0.8-1.8,2.1c0,1.3,0.7,2,1.8,2C65.8,33.3,66.5,32.5,66.5,31.2z"/>
	</g>
</g>
</svg>
